<svg xmlns="http://www.w3.org/2000/svg" 
xmlns:xlink="http://www.w3.org/1999/xlink" width="150" zoomAndPan="magnify" viewBox="100 120 250 130" height="50" 
preserveAspectRatio="xMidYMid meet" version="1.
0"

><defs><g/><clipPath id="d0628c72d9"><path d="M 63 145.628906 L 79 145.628906 L 79 150 L 63 150 Z M 63 145.628906 " clip-rule="nonzero"/></clipPath><clipPath id="09f74071ba"><path d="M 56 220 L 62 220 L 62 224.378906 L 56 224.378906 Z M 56 220 " clip-rule="nonzero"/></clipPath><clipPath id="eea278bd01"><path d="M 81 220 L 86 220 L 86 224.378906 L 81 224.378906 Z M 81 220 " clip-rule="nonzero"/></clipPath><clipPath id="a4fa64532a"><path d="M 46.042969 160 L 96.292969 160 L 96.292969 219 L 46.042969 219 Z M 46.042969 160 " clip-rule="nonzero"/></clipPath></defs><path fill="#ffbd59" d="M 88.148438 162.523438 L 85.902344 162.523438 L 85.902344 152.757812 C 85.902344 150.382812 83.972656 148.445312 81.601562 148.445312 L 80.230469 148.445312 L 80.230469 146.195312 L 81.601562 146.195312 C 85.210938 146.195312 88.148438 149.140625 88.148438 152.761719 L 88.148438 162.527344 Z M 88.148438 162.523438 " fill-opacity="1" fill-rule="evenodd"/><path fill="#ffbd59" d="M 56.429688 162.523438 L 54.1875 162.523438 L 54.1875 152.757812 C 54.1875 149.136719 57.121094 146.191406 60.734375 146.191406 L 62.101562 146.191406 L 62.101562 148.445312 L 60.734375 148.445312 C 58.363281 148.445312 56.429688 150.378906 56.429688 152.757812 Z M 56.429688 162.523438 " fill-opacity="1" fill-rule="evenodd"/><g clip-path="url(#d0628c72d9)"><path fill="#ffbd59" d="M 76.894531 149.007812 L 65.4375 149.007812 C 64.507812 149.007812 63.753906 148.25 63.753906 147.320312 C 63.753906 146.386719 64.507812 145.628906 65.4375 145.628906 L 76.894531 145.628906 C 77.824219 145.628906 78.578125 146.386719 78.578125 147.320312 C 78.578125 148.25 77.824219 149.007812 76.894531 149.007812 Z M 76.894531 149.007812 " fill-opacity="1" fill-rule="evenodd"/></g><g clip-path="url(#09f74071ba)"><path fill="#ffbd59" d="M 56.511719 220.4375 L 56.511719 222.125 C 56.511719 223.371094 57.515625 224.378906 58.757812 224.378906 C 60 224.378906 61.003906 223.371094 61.003906 222.125 L 61.003906 220.4375 Z M 56.511719 220.4375 " fill-opacity="1" fill-rule="evenodd"/></g><g clip-path="url(#eea278bd01)"><path fill="#ffbd59" d="M 81.332031 220.4375 L 81.332031 222.125 C 81.332031 223.371094 82.335938 224.378906 83.578125 224.378906 C 84.816406 224.378906 85.820312 223.371094 85.820312 222.125 L 85.820312 220.4375 Z M 81.332031 220.4375 " fill-opacity="1" fill-rule="evenodd"/></g><g clip-path="url(#a4fa64532a)"><path fill="#004aad" d="M 80.039062 218.9375 C 80.015625 218.9375 79.992188 218.9375 79.96875 218.9375 C 79.988281 218.9375 80.011719 218.9375 80.039062 218.9375 Z M 53.222656 206.582031 L 57.4375 202.777344 L 57.4375 199.953125 C 57.4375 199.496094 57.8125 199.125 58.265625 199.125 C 58.722656 199.125 59.09375 199.496094 59.09375 199.953125 L 59.09375 201.285156 L 63.28125 197.503906 L 63.28125 195.125 C 63.28125 194.667969 63.652344 194.292969 64.105469 194.292969 C 64.5625 194.292969 64.933594 194.667969 64.933594 195.125 L 64.933594 196.011719 L 68.375 192.90625 C 68.546875 186.347656 69.535156 180.394531 71.171875 180.394531 C 72.808594 180.394531 73.792969 186.347656 73.964844 192.90625 L 77.410156 196.011719 L 77.410156 195.125 C 77.410156 194.667969 77.785156 194.292969 78.238281 194.292969 C 78.691406 194.292969 79.066406 194.667969 79.0625 195.125 L 79.0625 197.503906 L 83.25 201.285156 L 83.25 199.953125 C 83.25 199.496094 83.621094 199.125 84.078125 199.125 C 84.53125 199.125 84.902344 199.496094 84.902344 199.953125 L 84.902344 202.777344 L 89.121094 206.582031 L 89.121094 208.238281 L 73.785156 201.320312 C 73.390625 208.324219 72.597656 215.441406 72.597656 215.441406 L 76.511719 218.9375 L 80.042969 218.9375 C 80.050781 218.9375 80.058594 218.9375 80.066406 218.9375 L 89.28125 218.9375 C 93.152344 218.9375 96.289062 215.789062 96.289062 211.90625 L 96.289062 167.085938 C 96.289062 163.203125 93.152344 160.054688 89.28125 160.054688 L 53.066406 160.054688 C 49.195312 160.054688 46.054688 163.203125 46.054688 167.085938 L 46.054688 211.90625 C 46.054688 215.789062 49.195312 218.9375 53.066406 218.9375 L 65.835938 218.9375 L 69.75 215.441406 C 69.75 215.441406 68.957031 208.324219 68.5625 201.320312 L 53.226562 208.238281 L 53.226562 206.582031 Z M 53.222656 206.582031 " fill-opacity="1" fill-rule="evenodd"/></g><g fill="#004aad" fill-opacity="1"><g transform="translate(101.042949, 213.802618)"><g><path d="M 6.34375 0 L 0.78125 -51.921875 L 10.9375 -51.921875 L 13.84375 -19.15625 L 16.734375 -51.921875 L 26.40625 -51.921875 L 29.1875 -19.15625 L 31.96875 -51.921875 L 42.25 -51.921875 L 36.5625 0 L 24.109375 0 L 21.515625 -25.015625 L 19.03125 0 Z M 6.34375 0 "/></g></g></g><g fill="#004aad" fill-opacity="1"><g transform="translate(144.917738, 213.802618)"><g><path d="M 10.15625 0.484375 C 6.726562 0.484375 4.378906 -0.648438 3.109375 -2.921875 C 1.835938 -5.203125 1.203125 -8.457031 1.203125 -12.6875 C 1.203125 -16.15625 1.65625 -18.816406 2.5625 -20.671875 C 3.46875 -22.523438 4.726562 -23.882812 6.34375 -24.75 C 7.957031 -25.613281 10.414062 -26.570312 13.71875 -27.625 L 16.625 -28.59375 L 16.625 -33.125 C 16.625 -34.289062 16.390625 -35.1875 15.921875 -35.8125 C 15.460938 -36.4375 14.910156 -36.75 14.265625 -36.75 C 13.703125 -36.75 13.207031 -36.484375 12.78125 -35.953125 C 12.351562 -35.429688 12.140625 -34.726562 12.140625 -33.84375 L 12.140625 -31.1875 L 1.875 -31.1875 L 1.875 -32.640625 C 1.875 -36.984375 2.890625 -40.082031 4.921875 -41.9375 C 6.960938 -43.789062 10.28125 -44.71875 14.875 -44.71875 C 18.539062 -44.71875 21.519531 -43.757812 23.8125 -41.84375 C 26.101562 -39.9375 27.25 -37.226562 27.25 -33.71875 L 27.25 0 L 16.734375 0 L 16.734375 -5.265625 C 16.210938 -3.441406 15.378906 -2.023438 14.234375 -1.015625 C 13.085938 -0.015625 11.726562 0.484375 10.15625 0.484375 Z M 14.328125 -7.734375 C 15.128906 -7.734375 15.703125 -8.066406 16.046875 -8.734375 C 16.390625 -9.398438 16.5625 -10.21875 16.5625 -11.1875 L 16.5625 -23.515625 C 14.988281 -22.910156 13.828125 -22.144531 13.078125 -21.21875 C 12.335938 -20.289062 11.96875 -19 11.96875 -17.34375 L 11.96875 -11.671875 C 11.96875 -9.046875 12.753906 -7.734375 14.328125 -7.734375 Z M 14.328125 -7.734375 "/></g></g></g><g fill="#004aad" fill-opacity="1"><g transform="translate(174.953244, 213.802618)"><g><path d="M 1.265625 0.671875 L 6.34375 0.671875 C 7.070312 0.671875 7.4375 0.367188 7.4375 -0.234375 C 7.4375 -0.523438 7.414062 -0.75 7.375 -0.90625 L 0.484375 -44.234375 L 10.578125 -44.234375 L 12.578125 -22.65625 L 13.53125 -11.671875 L 14.6875 -22.65625 L 17.046875 -44.234375 L 27.203125 -44.234375 L 18.984375 2.296875 C 18.691406 4.023438 18.113281 5.300781 17.25 6.125 C 16.382812 6.957031 15.023438 7.375 13.171875 7.375 L 1.265625 7.375 Z M 1.265625 0.671875 "/></g></g></g><g fill="#004aad" fill-opacity="1"><g transform="translate(203.659207, 213.802618)"><g><path d="M 2.296875 0 L 2.296875 -51.921875 L 23.09375 -51.921875 L 23.09375 -41.828125 L 12.75 -41.828125 L 12.75 -33.546875 L 22.546875 -33.546875 L 22.546875 -23.578125 L 12.75 -23.578125 L 12.75 0 Z M 2.296875 0 "/></g></g></g><g fill="#004aad" fill-opacity="1"><g transform="translate(228.618289, 213.802618)"><g><path d="M 10.15625 0.484375 C 6.726562 0.484375 4.378906 -0.648438 3.109375 -2.921875 C 1.835938 -5.203125 1.203125 -8.457031 1.203125 -12.6875 C 1.203125 -16.15625 1.65625 -18.816406 2.5625 -20.671875 C 3.46875 -22.523438 4.726562 -23.882812 6.34375 -24.75 C 7.957031 -25.613281 10.414062 -26.570312 13.71875 -27.625 L 16.625 -28.59375 L 16.625 -33.125 C 16.625 -34.289062 16.390625 -35.1875 15.921875 -35.8125 C 15.460938 -36.4375 14.910156 -36.75 14.265625 -36.75 C 13.703125 -36.75 13.207031 -36.484375 12.78125 -35.953125 C 12.351562 -35.429688 12.140625 -34.726562 12.140625 -33.84375 L 12.140625 -31.1875 L 1.875 -31.1875 L 1.875 -32.640625 C 1.875 -36.984375 2.890625 -40.082031 4.921875 -41.9375 C 6.960938 -43.789062 10.28125 -44.71875 14.875 -44.71875 C 18.539062 -44.71875 21.519531 -43.757812 23.8125 -41.84375 C 26.101562 -39.9375 27.25 -37.226562 27.25 -33.71875 L 27.25 0 L 16.734375 0 L 16.734375 -5.265625 C 16.210938 -3.441406 15.378906 -2.023438 14.234375 -1.015625 C 13.085938 -0.015625 11.726562 0.484375 10.15625 0.484375 Z M 14.328125 -7.734375 C 15.128906 -7.734375 15.703125 -8.066406 16.046875 -8.734375 C 16.390625 -9.398438 16.5625 -10.21875 16.5625 -11.1875 L 16.5625 -23.515625 C 14.988281 -22.910156 13.828125 -22.144531 13.078125 -21.21875 C 12.335938 -20.289062 11.96875 -19 11.96875 -17.34375 L 11.96875 -11.671875 C 11.96875 -9.046875 12.753906 -7.734375 14.328125 -7.734375 Z M 14.328125 -7.734375 "/></g></g></g><g fill="#004aad" fill-opacity="1"><g transform="translate(258.653798, 213.802618)"><g><path d="M 2.109375 -44.234375 L 12.6875 -44.234375 L 12.6875 -39.34375 C 13.21875 -41.070312 14.132812 -42.410156 15.4375 -43.359375 C 16.75 -44.304688 18.375 -44.78125 20.3125 -44.78125 L 20.3125 -35.953125 C 18.820312 -35.953125 17.175781 -35.738281 15.375 -35.3125 C 13.582031 -34.894531 12.6875 -34.40625 12.6875 -33.84375 L 12.6875 0 L 2.109375 0 Z M 2.109375 -44.234375 "/></g></g></g><g fill="#004aad" fill-opacity="1"><g transform="translate(280.289035, 213.802618)"><g><path d="M 14.5 0.484375 C 9.945312 0.484375 6.679688 -0.765625 4.703125 -3.265625 C 2.734375 -5.765625 1.75 -9.488281 1.75 -14.4375 L 1.75 -32.21875 C 1.75 -36.28125 2.914062 -39.378906 5.25 -41.515625 C 7.59375 -43.648438 10.859375 -44.71875 15.046875 -44.71875 C 23.546875 -44.71875 27.796875 -40.550781 27.796875 -32.21875 L 27.796875 -29.015625 C 27.796875 -25.785156 27.757812 -23.164062 27.6875 -21.15625 L 12.328125 -21.15625 L 12.328125 -12.578125 C 12.328125 -11.046875 12.488281 -9.84375 12.8125 -8.96875 C 13.132812 -8.101562 13.820312 -7.671875 14.875 -7.671875 C 15.675781 -7.671875 16.25 -7.910156 16.59375 -8.390625 C 16.9375 -8.878906 17.132812 -9.4375 17.1875 -10.0625 C 17.25 -10.6875 17.28125 -11.601562 17.28125 -12.8125 L 17.28125 -17.109375 L 27.796875 -17.109375 L 27.796875 -14.5625 C 27.796875 -9.40625 26.796875 -5.609375 24.796875 -3.171875 C 22.804688 -0.734375 19.375 0.484375 14.5 0.484375 Z M 17.28125 -26.40625 L 17.28125 -32.09375 C 17.28125 -35.269531 16.492188 -36.859375 14.921875 -36.859375 C 13.148438 -36.859375 12.265625 -35.269531 12.265625 -32.09375 L 12.265625 -26.40625 Z M 17.28125 -26.40625 "/></g></g></g><g fill="#004aad" fill-opacity="1"><g transform="translate(310.626714, 213.802618)"><g><path d="M 2.109375 -44.234375 L 12.6875 -44.234375 L 12.6875 -39.34375 C 13.21875 -41.070312 14.132812 -42.410156 15.4375 -43.359375 C 16.75 -44.304688 18.375 -44.78125 20.3125 -44.78125 L 20.3125 -35.953125 C 18.820312 -35.953125 17.175781 -35.738281 15.375 -35.3125 C 13.582031 -34.894531 12.6875 -34.40625 12.6875 -33.84375 L 12.6875 0 L 2.109375 0 Z M 2.109375 -44.234375 "/></g></g></g></svg>